<?xml version="1.0" standalone="no"?>
<!DOCTYPE svg PUBLIC "-//W3C//DTD SVG 20010904//EN"
 "http://www.w3.org/TR/2001/REC-SVG-20010904/DTD/svg10.dtd">
<svg version="1.0" xmlns="http://www.w3.org/2000/svg"
 width="149.000000pt" height="58.000000pt" viewBox="0 0 149.000000 58.000000"
 preserveAspectRatio="xMidYMid meet">

<g transform="translate(0.000000,58.000000) scale(0.100000,-0.100000)"
fill="#000000" stroke="none">
<path d="M0 290 l0 -290 745 0 745 0 0 290 0 290 -745 0 -745 0 0 -290z m1480
0 l0 -280 -735 0 -735 0 0 280 0 280 735 0 735 0 0 -280z"/>
<path d="M803 514 c21 -7 22 -21 2 -27 -11 -4 -10 -4 2 -3 25 2 23 30 -2 33
-16 1 -16 1 -2 -3z"/>
<path d="M988 513 c7 -3 16 -2 19 1 4 3 -2 6 -13 5 -11 0 -14 -3 -6 -6z"/>
<path d="M1031 488 c2 -28 2 -29 6 -8 3 14 10 28 17 32 7 5 5 8 -6 8 -14 0
-18 -8 -17 -32z"/>
<path d="M1098 513 c7 -3 16 -2 19 1 4 3 -2 6 -13 5 -11 0 -14 -3 -6 -6z"/>
<path d="M1140 490 c0 -22 5 -30 18 -29 10 0 12 3 5 6 -7 2 -13 13 -13 23 0
10 6 21 13 23 7 3 5 6 -5 6 -13 1 -18 -7 -18 -29z"/>
<path d="M1220 490 c0 -25 4 -30 23 -29 16 1 18 2 5 6 -10 2 -18 14 -18 25 0
14 5 18 16 14 8 -3 12 -2 9 4 -14 22 -35 10 -35 -20z"/>
<path d="M865 470 c-16 -7 -17 -9 -3 -9 9 -1 20 4 23 9 7 11 7 11 -20 0z"/>
<path d="M988 463 c7 -3 16 -2 19 1 4 3 -2 6 -13 5 -11 0 -14 -3 -6 -6z"/>
<path d="M1098 463 c7 -3 16 -2 19 1 4 3 -2 6 -13 5 -11 0 -14 -3 -6 -6z"/>
<path d="M213 425 c-38 -16 -53 -42 -53 -88 0 -55 42 -84 113 -78 32 2 17 19
-17 18 -48 -1 -66 17 -66 68 0 51 18 69 66 69 19 0 34 4 34 8 0 4 -4 8 -9 8
-5 0 -15 2 -23 5 -7 2 -27 -2 -45 -10z"/>
<path d="M395 432 c-37 -7 -65 -43 -65 -83 0 -21 3 -45 6 -54 9 -23 58 -42 94
-37 42 6 37 20 -6 19 -27 -1 -42 5 -55 22 -41 50 -9 116 55 114 20 -1 36 3 36
7 0 10 -39 17 -65 12z"/>
<path d="M581 399 c-12 -24 -21 -50 -21 -56 0 -7 -10 -14 -22 -14 -17 -1 -18
-3 -6 -6 14 -3 15 -9 8 -29 -12 -32 -13 -44 -1 -44 5 0 14 14 20 31 9 27 14
30 36 25 15 -4 25 -2 25 5 0 6 -9 13 -21 16 -16 5 -19 11 -14 32 12 48 23 43
44 -21 24 -70 37 -95 46 -87 6 7 -52 168 -66 183 -5 5 -17 -10 -28 -35z"/>
<path d="M1340 390 c0 -5 5 -10 10 -10 6 0 10 5 10 10 0 6 -4 10 -10 10 -5 0
-10 -4 -10 -10z"/>
<path d="M822 374 c-33 -23 -31 -88 3 -110 26 -17 75 -13 75 6 0 6 -11 8 -25
4 -27 -7 -55 10 -55 32 0 10 13 14 45 14 37 0 45 3 45 18 0 22 -30 52 -51 52
-8 0 -25 -7 -37 -16z m58 -8 c0 -2 3 -11 6 -20 5 -13 -1 -16 -30 -16 -38 0
-44 8 -24 28 11 11 48 17 48 8z"/>
<path d="M933 374 c-8 -21 2 -119 12 -114 5 3 8 16 7 30 -5 44 15 82 41 78 19
-3 22 -10 25 -55 2 -29 7 -53 13 -53 14 0 11 106 -4 118 -16 14 -88 11 -94 -4z"/>
<path d="M1232 374 c-16 -11 -22 -25 -22 -53 0 -55 36 -83 84 -65 26 10 18 25
-9 18 -27 -7 -55 10 -55 32 0 10 13 14 45 14 49 0 56 10 29 48 -18 26 -41 28
-72 6z m57 -17 c14 -18 4 -27 -31 -27 -26 0 -37 17 -21 33 11 12 40 8 52 -6z"/>
<path d="M696 318 c28 -72 28 -72 41 -56 20 27 53 120 40 116 -6 -3 -19 -23
-27 -46 -8 -23 -17 -42 -21 -42 -3 0 -12 20 -19 45 -7 25 -18 45 -26 45 -9 0
-6 -17 12 -62z"/>
<path d="M1070 332 c0 -59 24 -89 62 -76 13 4 29 7 36 6 8 -2 12 15 12 58 0
33 -4 60 -10 60 -5 0 -10 -20 -10 -44 0 -86 -62 -89 -68 -2 -4 61 -22 59 -22
-2z"/>
<path d="M304 197 c-11 -12 -29 -35 -39 -52 -11 -16 -20 -32 -22 -34 -2 -2
-13 4 -24 15 -23 20 -23 18 0 -28 18 -36 27 -35 46 2 18 34 25 39 18 11 -3
-10 -1 -21 4 -24 6 -4 9 8 8 26 -1 18 6 43 18 58 25 35 18 55 -9 26z"/>
<path d="M420 142 c0 -5 11 -17 25 -26 14 -9 23 -22 19 -28 -4 -7 -3 -8 4 -4
19 11 14 23 -18 46 -16 12 -30 17 -30 12z"/>
<path d="M116 114 c-4 -9 -4 -19 -1 -22 3 -3 5 1 5 9 1 8 7 3 16 -11 l15 -25
-7 25 c-9 35 -20 44 -28 24z"/>
<path d="M340 105 c0 -14 5 -25 10 -25 6 0 10 11 10 25 0 14 -4 25 -10 25 -5
0 -10 -11 -10 -25z"/>
<path d="M390 105 c0 -14 5 -25 10 -25 6 0 10 11 10 25 0 14 -4 25 -10 25 -5
0 -10 -11 -10 -25z"/>
<path d="M488 105 c2 -14 6 -25 8 -25 2 0 4 11 4 25 0 14 -4 25 -9 25 -4 0 -6
-11 -3 -25z"/>
<path d="M543 115 c0 -8 4 -12 9 -9 4 3 8 9 8 15 0 5 -4 9 -8 9 -5 0 -9 -7 -9
-15z"/>
<path d="M582 105 c0 -16 2 -22 5 -12 2 9 2 23 0 30 -3 6 -5 -1 -5 -18z"/>
<path d="M622 105 c0 -16 2 -22 5 -12 2 9 2 23 0 30 -3 6 -5 -1 -5 -18z"/>
<path d="M758 123 c7 -3 16 -2 19 1 4 3 -2 6 -13 5 -11 0 -14 -3 -6 -6z"/>
<path d="M820 126 c0 -2 7 -7 16 -10 8 -3 12 -2 9 4 -6 10 -25 14 -25 6z"/>
<path d="M874 100 c1 -24 36 -44 36 -21 0 6 -6 8 -14 5 -10 -4 -16 3 -19 18
-4 22 -4 21 -3 -2z"/>
<path d="M953 124 c21 -7 22 -21 2 -26 -13 -2 -13 -5 3 -14 16 -10 18 -8 17
15 0 18 -6 26 -20 28 -16 1 -16 1 -2 -3z"/>
<path d="M1008 123 c7 -3 16 -2 19 1 4 3 -2 6 -13 5 -11 0 -14 -3 -6 -6z"/>
<path d="M1060 126 c0 -2 9 -6 20 -9 11 -3 18 -1 14 4 -5 9 -34 13 -34 5z"/>
<path d="M1155 119 c-4 -6 -4 -13 -1 -16 3 -4 6 -1 6 6 0 8 6 11 16 7 8 -3 12
-2 9 4 -8 13 -22 13 -30 -1z"/>
<path d="M1236 122 c7 -4 14 -18 17 -32 l4 -25 2 27 c0 14 7 29 14 31 6 3 -1
6 -18 6 -16 0 -25 -3 -19 -7z"/>
<path d="M1290 100 c0 -25 4 -30 23 -29 16 1 18 2 5 6 -10 2 -18 13 -18 23 0
10 8 21 18 23 13 4 11 5 -5 6 -19 1 -23 -4 -23 -29z"/>
<path d="M801 102 c-1 -25 25 -40 41 -24 8 8 5 9 -10 5 -16 -4 -21 1 -25 19
l-4 23 -2 -23z"/>
<path d="M715 90 c6 -10 3 -12 -13 -8 -12 4 -20 2 -16 -3 7 -12 31 -12 39 0 3
5 0 13 -6 17 -8 5 -9 3 -4 -6z"/>
<path d="M1175 91 c3 -5 -2 -12 -10 -14 -12 -4 -12 -5 1 -3 19 1 32 26 14 26
-6 0 -9 -4 -5 -9z"/>
<path d="M1075 80 c-19 -8 -19 -9 3 -9 12 -1 22 4 22 9 0 6 -1 10 -2 9 -2 0
-12 -4 -23 -9z"/>
<path d="M520 76 c0 -2 9 -6 20 -9 11 -3 20 -1 20 4 0 5 -9 9 -20 9 -11 0 -20
-2 -20 -4z"/>
<path d="M758 73 c6 -2 18 -2 25 0 6 3 1 5 -13 5 -14 0 -19 -2 -12 -5z"/>
<path d="M1008 73 c6 -2 18 -2 25 0 6 3 1 5 -13 5 -14 0 -19 -2 -12 -5z"/>
</g>
</svg>
